PathFileType	4	(X/Y/Z)	Kaydara																																																																																																																									
DataRate	CameraRate	NumFrames	NumMarkers	Units	OrigDataRate	OrigDataStartFrame	OrigNumFrames																																																																																																																					
30	30	5	41	mm	30	278	266																																																																																																																					
Frame#	Time	SALE_LFHD			SALE_RFHD			SALE_LBHD			SALE_RBHD			SALE_LFTShould			SALE_RFTShould			SALE_LRRShould			SALE_RRRShould			SALE_T10			SALE_STRN			SALE_TRUN			SALE_LSHO			SALE_LUPA			SALE_LELB			SALE_LFRM			SALE_LWRA			SALE_LWRB			SALE_LFIN			SALE_RSHO			SALE_RUPA			SALE_RELB			SALE_RFRM			SALE_RWRB			SALE_RFIN			SALE_LFWT			SALE_RFWT			SALE_LBWT			SALE_RBWT			SALE_LTHI			SALE_LKNE			SALE_RWRA			SALE_LSHN			SALE_LANK			SALE_LHEE			SALE_LTOE			SALE_RTHI			SALE_RKNE			SALE_RSHN			SALE_RANK			SALE_RHEE			SALE_RTOE		
		X1	Y1	Z1	X2	Y2	Z2	X3	Y3	Z3	X4	Y4	Z4	X5	Y5	Z5	X6	Y6	Z6	X7	Y7	Z7	X8	Y8	Z8	X9	Y9	Z9	X10	Y10	Z10	X11	Y11	Z11	X12	Y12	Z12	X13	Y13	Z13	X14	Y14	Z14	X15	Y15	Z15	X16	Y16	Z16	X17	Y17	Z17	X18	Y18	Z18	X19	Y19	Z19	X20	Y20	Z20	X21	Y21	Z21	X22	Y22	Z22	X23	Y23	Z23	X24	Y24	Z24	X25	Y25	Z25	X26	Y26	Z26	X27	Y27	Z27	X28	Y28	Z28	X29	Y29	Z29	X30	Y30	Z30	X31	Y31	Z31	X32	Y32	Z32	X33	Y33	Z33	X34	Y34	Z34	X35	Y35	Z35	X36	Y36	Z36	X37	Y37	Z37	X38	Y38	Z38	X39	Y39	Z39	X40	Y40	Z40	X41	Y41	Z41
																																																																																																																												
233	9.233	131.76578	1504.63837	2500.78217	1.1554	1507.5798	2504.28711	126.48207	1578.9978	2390.73959	-0.02176	1578.02673	2398.99231	131.9841	1317.1402	2368.58887	-8.94428	1314.4902	2363.4581	128.40985	1379.33472	2259.78088	-22.43992	1383.76556	2262.41913	54.67492	1230.4171	2184.04434	55.75971	1242.96196	2409.68979	52.68864	1155.55626	2447.49619	248.29788	1347.40891	2303.30139	290.69481	1131.71349	2311.84906	277.81445	1018.77769	2308.51639	304.65151	922.00294	2365.08789	242.37144	808.88237	2468.69324	308.51532	790.80856	2434.39575	305.00906	763.79204	2489.37531	-115.73098	1347.83554	2299.70718	-142.52204	1121.76636	2226.47949	-175.75829	1020.44907	2264.60083	-169.00272	907.53868	2250.86807	-195.86756	769.88945	2287.76245	-207.7075	723.78311	2337.78259	182.38918	913.9859	2392.56042	-96.36324	911.65703	2383.07526	128.12838	964.83749	2220.95169	-50.98958	962.70042	2208.75244	180.64117	637.11155	2194.04373	168.71012	455.26913	2239.7438	-157.09229	776.74919	2351.85593	157.67878	259.13446	2200.28214	147.99213	86.7417	2119.42535	111.65074	44.73822	2043.81653	113.58937	41.40347	2240.53558	-109.83625	636.59473	2302.2673	-90.46694	520.17212	2461.11008	-43.23864	338.57071	2511.84662	-94.24676	88.33407	2550.38452	-81.22012	73.21726	2680.8017	-46.81102	2.23999	2505.17639
234	9.267	126.12129	1499.97101	2521.5799	-4.54185	1502.16476	2526.70975	118.81889	1574.50424	2411.73218	-7.06007	1572.80365	2420.83481	125.6064	1313.00385	2388.70422	-15.44444	1309.43634	2385.90973	120.22338	1374.89731	2279.49783	-30.95531	1378.53195	2284.57413	45.72724	1224.55009	2206.55075	50.55794	1238.79433	2431.65298	48.53265	1151.63406	2470.21622	240.8802	1343.24249	2321.34964	284.11749	1127.52098	2329.63623	271.21243	1014.53369	2325.9494	299.36132	917.01668	2379.46075	238.67748	800.41031	2480.05356	304.71056	784.03542	2444.68765	301.58644	754.81895	2498.7973	-123.31831	1341.95206	2323.396	-149.69666	1115.17975	2251.7836	-182.03756	1013.76808	2290.30563	-174.79271	901.02615	2276.64993	-200.79206	763.17329	2313.43292	-212.38678	717.05101	2363.39783	177.79264	910.96748	2417.99286	-101.39364	907.98767	2411.97281	121.25099	959.68506	2245.78598	-58.85023	957.59506	2235.98282	174.80274	637.83295	2214.81735	164.88344	454.71909	2255.33447	-161.79255	770.05066	2377.24564	155.26036	259.60693	2208.84613	147.13573	89.93631	2122.08588	111.1123	50.00208	2045.4158	113.65054	41.14538	2241.26007	-111.61696	632.1442	2331.42929	-92.61022	515.25074	2489.14764	-44.14021	331.82404	2533.86612	-94.24973	77.84908	2558.96378	-87.60273	49.23169	2689.31824	-48.33582	6.28267	2510.88776
235	9.3	119.71359	1497.25601	2542.61017	-10.85801	1498.33298	2549.44336	110.73198	1572.89978	2433.95462	-14.92862	1570.1326	2444.02832	118.41594	1311.99753	2408.12775	-22.79374	1307.4617	2407.64923	111.72256	1373.25104	2298.89572	-39.57656	1376.08582	2306.03714	36.93501	1221.23047	2229.60373	44.80088	1237.6973	2453.44803	43.89325	1151.10474	2493.28766	233.28196	1340.98724	2338.69049	276.48249	1124.6344	2347.22443	263.65072	1011.689	2344.39941	293.3292	913.41721	2392.78397	234.62175	791.83273	2488.3728	300.37678	777.69386	2451.44043	298.13309	745.76828	2504.09943	-131.33627	1338.64349	2345.82397	-157.31714	1110.16052	2277.13089	-188.8336	1009.21631	2317.0401	-181.46503	896.93481	2303.62274	-206.83617	758.86612	2340.23651	-218.52512	713.43628	2390.36697	173.56056	909.63516	2443.97858	-104.87229	909.14139	2442.66815	114.53483	957.145	2271.86478	-66.46486	957.57225	2266.9223	166.88433	639.95781	2237.677	159.46739	455.78804	2274.24805	-167.18407	765.78171	2403.61481	152.08354	261.83105	2220.05173	146.08256	95.77768	2126.32889	110.4603	58.51341	2048.14041	113.48345	40.83307	2243.01346	-117.07279	633.19843	2357.25876	-97.64621	513.31451	2508.05878	-44.06913	329.9548	2551.01288	-92.19156	79.3903	2571.42212	-84.03687	38.69185	2702.99744	-43.08362	12.01513	2517.64694
236	9.333	112.63266	1496.88766	2564.06677	-17.78514	1496.89087	2572.36298	102.24338	1574.077	2456.8924	-23.24459	1570.30609	2468.0365	111.43293	1314.37836	2427.76108	-29.79858	1309.27719	2428.80234	103.37193	1375.21484	2318.18115	-47.96493	1376.99738	2326.74744	28.84643	1221.66008	2251.86371	38.79481	1241.15517	2475.14542	38.91732	1155.51422	2516.95541	225.49143	1343.03055	2356.24176	267.8245	1126.21765	2363.85468	254.47983	1013.4713	2361.69937	285.98747	914.48616	2404.20609	230.03559	786.85631	2493.66287	293.81466	774.7625	2453.42651	294.22131	740.20958	2505.16968	-139.09727	1339.50775	2367.30743	-164.49024	1109.82361	2302.53159	-195.61623	1009.34235	2344.17679	-188.14941	897.36984	2331.27075	-213.6334	759.49898	2368.46588	-225.52525	714.78348	2419.17038	168.96666	910.62897	2470.65353	-108.54277	916.9548	2472.30026	109.47744	958.62534	2298.96042	-71.45032	964.55811	2295.74814	157.34089	642.67967	2262.75986	153.24897	457.98218	2296.26297	-173.18583	766.38847	2431.52771	148.18645	265.61991	2233.89557	145.58266	103.83453	2132.67838	111.11676	70.39959	2052.81021	113.08507	40.28285	2245.83435	-128.62476	643.64685	2380.634	-98.68684	517.33482	2528.77823	-43.08887	331.44646	2558.09784	-90.65364	78.12463	2578.7442	-78.2495	39.66255	2705.14862	-44.33592	12.05158	2517.58652
237	9.367	105.38906	1498.9473	2585.46967	-24.98032	1497.8125	2594.67743	94.30542	1577.98721	2479.82056	-31.88994	1573.13019	2492.35748	105.04242	1321.00037	2448.04794	-36.5803	1314.84283	2450.06073	95.36539	1379.42932	2337.71149	-55.49854	1379.93225	2347.22672	21.87532	1224.22302	2274.37759	32.99536	1248.60168	2497.04987	34.24543	1163.92937	2540.81177	217.87363	1349.19662	2374.68933	259.44378	1132.11563	2379.25522	244.72485	1020.06287	2376.85608	278.00505	919.86809	2413.11829	224.853	787.29256	2497.17957	287.08681	777.70493	2454.13605	289.24679	739.412	2503.5881	-146.25798	1343.28415	2388.36655	-170.83336	1113.19366	2327.1788	-201.95501	1013.21602	2370.36423	-194.6834	901.03722	2358.99231	-220.56211	763.85689	2398.38089	-232.86787	720.03952	2449.51538	164.50073	913.63899	2495.9407	-112.6004	925.27046	2501.09268	104.31135	962.78992	2325.59158	-75.6047	972.56546	2324.41315	147.85045	645.90805	2288.78586	147.33671	461.0445	2321.81305	-179.67838	771.0453	2460.93582	144.32796	270.04692	2250.77667	145.03947	113.4099	2141.04034	111.64622	84.71055	2059.67072	112.50077	39.69043	2249.4342	-138.39152	652.81044	2402.3262	-105.92764	520.43816	2537.48978	-53.10906	332.66216	2563.2431	-94.23816	76.04431	2573.23639	-82.30249	38.47749	2702.47803	-45.98486	11.48533	2516.90063
